<svg width="100" height="100" viewBox="0 0 100 100" fill="none" xmlns="http://www.w3.org/2000/svg">
  <!-- Outer Sphere (O) -->
  <circle cx="50" cy="50" r="38" stroke="white" stroke-width="2.5" />
  
  <!-- Planetary Ring -->
  <path d="M15 75C10 70 10 50 45 30C80 10 95 10 98 15C101 20 101 40 65 60C30 80 20 80 15 75Z" stroke="white" stroke-width="2.2" stroke-linecap="round" />
  
  <!-- Monogram Content (U + K) -->
  <path d="M40 28V72" stroke="white" stroke-width="3.2" stroke-linecap="round" />
  <path d="M40 48L62 26" stroke="white" stroke-width="3.2" stroke-linecap="round" />
  <path d="M40 48L62 70" stroke="white" stroke-width="3.2" stroke-linecap="round" />
  <path d="M28 42C28 42 28 72 40 72" stroke="white" stroke-width="3.2" stroke-linecap="round" />
  <path d="M40 28C52 28 62 38 62 38" stroke="white" stroke-width="2.8" stroke-linecap="round" />

  <!-- Orbiting Moon -->
  <circle cx="74" cy="74" r="5" fill="white" />
</svg>
